<?xml version="1.0" encoding="utf-8"?>
<svg version="1.1" xmlns="http://www.w3.org/2000/svg" xmlns:xlink="http://www.w3.org/1999/xlink" x="0px" y="0px"
	viewBox="0 0 24 24" style="enable-background:new 0 0 24 24;" xml:space="preserve">
	<style>
		.st0 {
			fill: none;
		}

		.st1 {
			fill: #121331;
		}
	</style>
	<g id="bounding_box">
		<rect y="0" class="st0" width="24" height="24" />
	</g>
	<g id="design">
		<g>
			<g>
				<path class="st1" d="M19,11.27V9.64C19,6.53,16.47,4,13.36,4H7.64C4.53,4,2,6.53,2,9.64v6.61C2,16.66,2.34,17,2.75,17h5.28
				c0.27,2.25,2.18,4,4.5,4h8.72c0.41,0,0.75-0.34,0.75-0.75v-4.72C22,13.57,20.75,11.89,19,11.27z M3.5,15.5V9.64
				c0-2.28,1.86-4.14,4.14-4.14h5.72c2.28,0,4.14,1.86,4.14,4.14v1.72c0,0.4-0.06,0.78-0.17,1.14c-0.49,1.73-2.09,3-3.97,3H3.5z
				 M20.5,19.5h-7.97c-1.49,0-2.73-1.08-2.98-2.5h3.81c2.61,0,4.8-1.78,5.45-4.18c1,0.49,1.69,1.52,1.69,2.71V19.5z" />
			</g>
			<g>
				<path class="st1" d="M6.5,11.5c-0.13,0-0.26-0.02-0.38-0.08C6,11.37,5.89,11.3,5.79,11.21C5.61,11.02,5.5,10.76,5.5,10.5
				c0-0.26,0.11-0.52,0.29-0.71c0.1-0.09,0.2-0.16,0.33-0.21c0.36-0.16,0.81-0.07,1.09,0.21C7.39,9.98,7.5,10.24,7.5,10.5
				c0,0.26-0.11,0.52-0.29,0.71c-0.05,0.04-0.1,0.08-0.16,0.12C7,11.37,6.94,11.4,6.88,11.42c-0.06,0.03-0.12,0.05-0.18,0.06
				C6.63,11.49,6.57,11.5,6.5,11.5z" />
				<path class="st1" d="M10.5,11.5c-0.13,0-0.26-0.02-0.38-0.08c-0.13-0.05-0.23-0.12-0.33-0.21C9.61,11.02,9.5,10.76,9.5,10.5
				c0-0.26,0.11-0.52,0.29-0.71c0.1-0.09,0.2-0.16,0.33-0.21c0.36-0.16,0.81-0.07,1.09,0.21c0.18,0.19,0.29,0.45,0.29,0.71
				c0,0.26-0.11,0.52-0.29,0.71C11.02,11.39,10.76,11.5,10.5,11.5z" />
				<path class="st1" d="M14.5,11.5c-0.26,0-0.52-0.11-0.71-0.29c-0.18-0.19-0.29-0.45-0.29-0.71c0-0.26,0.11-0.52,0.29-0.71
				c0.37-0.37,1.04-0.37,1.42,0c0.18,0.19,0.29,0.45,0.29,0.71c0,0.26-0.11,0.52-0.29,0.71c-0.05,0.04-0.1,0.09-0.16,0.12
				c-0.05,0.04-0.11,0.07-0.17,0.09c-0.06,0.03-0.12,0.05-0.19,0.06C14.63,11.49,14.56,11.5,14.5,11.5z" />
			</g>
		</g>
	</g>
</svg>