<svg xmlns="http://www.w3.org/2000/svg" viewBox="0 0 1073.32 442.52"><path d="M872.59,429.66V489.9a9.29,9.29,0,0,1-9.53,9.32c-28-1-61.38,12.9-61.38,54.81v97.5a9.33,9.33,0,0,1-9.32,9.33H740.1a9.33,9.33,0,0,1-9.32-9.33V433.83a9.32,9.32,0,0,1,9.32-9.32h52.26a9.32,9.32,0,0,1,9.32,9.32h0a9.33,9.33,0,0,0,15.89,6.62c11.87-11.48,28-18.08,44.52-20A9.36,9.36,0,0,1,872.59,429.66Z" transform="translate(-423.67 -318.63)"/><path d="M886.76,542.68c0-70.43,53.41-124.79,125.26-124.79a125.69,125.69,0,0,1,73.32,23.25c20.5,14.7,19.1,45.62-2.72,58.28l-1.13.66a35.12,35.12,0,0,1-38.45-2.42c-8.6-6.31-19.61-9.81-32-9.81-30.73,0-53.42,22.22-53.42,54.83s22.69,54.84,53.42,54.84c12.4,0,23.62-3.53,32.26-9.88a35,35,0,0,1,38.23-2.49l1,.59c21.61,12.38,23.7,43,3.66,57.81A124.58,124.58,0,0,1,1012,667.47C940.17,667.47,886.76,613.11,886.76,542.68Z" transform="translate(-423.67 -318.63)"/><path d="M1140.12,361.17c0-23.16,19.38-42.54,42.54-42.54s42.54,19.38,42.54,42.54-19.38,42.54-42.54,42.54S1140.12,384.33,1140.12,361.17Zm33,63.34h19.1a25.91,25.91,0,0,1,25.9,25.91V635a25.91,25.91,0,0,1-25.9,25.91h-19.1a25.91,25.91,0,0,1-25.9-25.91V450.42A25.91,25.91,0,0,1,1173.11,424.51Z" transform="translate(-423.67 -318.63)"/><path d="M1497,515.74V654.5a6.36,6.36,0,0,1-6.36,6.36h-58.18a6.36,6.36,0,0,1-6.36-6.36V526.14c0-29.31-18.43-43-41.12-43-26,0-44,15.13-44,48.69V654.5a6.36,6.36,0,0,1-6.36,6.36h-58.19a6.36,6.36,0,0,1-6.36-6.36V430.87a6.36,6.36,0,0,1,6.36-6.36h58.19a6.36,6.36,0,0,1,6.36,6.36h0a6.35,6.35,0,0,0,10.35,4.94c13.55-11.15,33.14-17.92,57.24-17.92C1456.34,417.89,1497,451.93,1497,515.74Z" transform="translate(-423.67 -318.63)"/><path d="M460.12,743.85l13.8-8c2.5,5.8,6.8,9.7,14.71,9.7,7.6,0,9.5-3,9.5-5.7,0-4.3-4-6-14.51-8.9S463,723,463,709.64s11.4-21.3,23.51-21.3c11.5,0,20.5,5.5,25.6,15.8l-13.5,7.9c-2.4-5-5.7-8.1-12.1-8.1-5,0-7.51,2.5-7.51,5.3,0,3.2,1.7,5.4,12.61,8.7,10.6,3.2,22.5,6.9,22.5,21.71,0,13.5-10.8,21.5-26,21.5C473.42,761.15,464,754.15,460.12,743.85Z" transform="translate(-423.67 -318.63)"/><path d="M578.62,724.75A36.41,36.41,0,1,1,615,761.15,36.09,36.09,0,0,1,578.62,724.75Zm56.81,0c0-12.51-9-20.81-20.4-20.81s-20.41,8.3-20.41,20.81,9,20.8,20.41,20.8S635.43,737.25,635.43,724.75Z" transform="translate(-423.67 -318.63)"/><path d="M761.43,744.35v15.4h-41v-70h16v54.61Z" transform="translate(-423.67 -318.63)"/><path d="M826.92,737.15V689.74h16v46c0,5.3,2.5,9.8,11,9.8s11-4.5,11-9.8v-46h16v47.41c0,15-11.6,24-27,24S826.92,752.15,826.92,737.15Z" transform="translate(-423.67 -318.63)"/><path d="M999.43,705.14h-18v54.61h-16V705.14h-18v-15.4h52Z" transform="translate(-423.67 -318.63)"/><path d="M1082.42,689.74v70h-16v-70Z" transform="translate(-423.67 -318.63)"/><path d="M1151.42,724.75a36.41,36.41,0,1,1,36.4,36.4A36.09,36.09,0,0,1,1151.42,724.75Zm56.81,0c0-12.51-9-20.81-20.41-20.81s-20.4,8.3-20.4,20.81,9,20.8,20.4,20.8S1208.23,737.25,1208.23,724.75Z" transform="translate(-423.67 -318.63)"/><path d="M1348.23,689.74v70h-12l-27-38v38h-16v-70h12l27,38v-38Z" transform="translate(-423.67 -318.63)"/><path d="M1415.72,743.85l13.8-8c2.5,5.8,6.8,9.7,14.7,9.7,7.6,0,9.5-3,9.5-5.7,0-4.3-4-6-14.5-8.9s-20.6-7.91-20.6-21.31,11.4-21.3,23.5-21.3c11.5,0,20.5,5.5,25.6,15.8l-13.5,7.9c-2.4-5-5.7-8.1-12.1-8.1-5,0-7.5,2.5-7.5,5.3,0,3.2,1.7,5.4,12.6,8.7,10.6,3.2,22.51,6.9,22.51,21.71,0,13.5-10.81,21.5-26,21.5C1429,761.15,1419.62,754.15,1415.72,743.85Z" transform="translate(-423.67 -318.63)"/><path d="M675.72,460.76a3,3,0,0,1,2.85,2.94l1.64,189.53a6.72,6.72,0,0,1-6.73,6.72H615.41a6.72,6.72,0,0,1-6.73-6.72h0A6.73,6.73,0,0,0,597.76,648c-15,11.81-34.88,18.66-60.12,18.66-62.47,0-114-54.83-114-125.88s51.5-125.89,114-125.89c25.24,0,45.12,6.85,60.12,18.66a6.73,6.73,0,0,0,10.92-5.25h0a6.72,6.72,0,0,1,6.73-6.72h16.88a3,3,0,0,1,3,2.84C636.51,447.14,652.81,459.81,675.72,460.76Zm-67,80c0-35.76-23.84-58.18-56.74-58.18S495.2,505,495.2,540.75s23.84,58.17,56.74,58.17S608.68,576.51,608.68,540.75Z" transform="translate(-423.67 -318.63)"/></svg>